<svg width="33" height="39" viewBox="0 0 33 39" fill="none" xmlns="http://www.w3.org/2000/svg">
<path d="M28.1674 5.50074C31.1967 8.52965 32.9292 12.618 32.9987 16.9012C33.0681 21.1844 31.4691 25.3267 28.5396 28.4522L28.1674 28.8372L20.3886 36.6142C19.4016 37.6006 18.0765 38.175 16.6819 38.2209C15.2872 38.2669 13.9272 37.781 12.8774 36.8617L12.6134 36.6142L4.83277 28.8354C1.7384 25.741 0 21.5442 0 17.1681C0 12.792 1.7384 8.59511 4.83277 5.50074C7.92714 2.40637 12.124 0.667969 16.5001 0.667969C20.8762 0.667969 25.0731 2.40637 28.1674 5.50074ZM16.5001 11.6681C15.7778 11.6681 15.0626 11.8103 14.3953 12.0867C13.7281 12.3631 13.1217 12.7683 12.611 13.279C12.1003 13.7897 11.6952 14.396 11.4188 15.0633C11.1424 15.7306 11.0001 16.4458 11.0001 17.1681C11.0001 17.8903 11.1424 18.6055 11.4188 19.2728C11.6952 19.9401 12.1003 20.5464 12.611 21.0572C13.1217 21.5679 13.7281 21.973 14.3953 22.2494C15.0626 22.5258 15.7778 22.6681 16.5001 22.6681C17.9588 22.6681 19.3577 22.0886 20.3892 21.0572C21.4206 20.0257 22.0001 18.6268 22.0001 17.1681C22.0001 15.7094 21.4206 14.3104 20.3892 13.279C19.3577 12.2475 17.9588 11.6681 16.5001 11.6681Z" fill="#FB923C"/>
</svg>
